<svg width="33" height="33" viewBox="0 0 33 33" fill="none" xmlns="http://www.w3.org/2000/svg">
<path d="M13.7265 16.7982C14.2646 16.7982 14.7009 16.3621 14.7009 15.8243C14.7009 15.2864 14.2646 14.8504 13.7265 14.8504C13.1883 14.8504 12.7521 15.2864 12.7521 15.8243C12.7521 16.3621 13.1883 16.7982 13.7265 16.7982Z" fill="#344B5C"/>
<path d="M16.502 16.7982C17.0402 16.7982 17.4764 16.3621 17.4764 15.8243C17.4764 15.2864 17.0402 14.8504 16.502 14.8504C15.9639 14.8504 15.5276 15.2864 15.5276 15.8243C15.5276 16.3621 15.9639 16.7982 16.502 16.7982Z" fill="#344B5C"/>
<path d="M19.2775 16.7982C19.8156 16.7982 20.2519 16.3621 20.2519 15.8243C20.2519 15.2864 19.8156 14.8504 19.2775 14.8504C18.7394 14.8504 18.3031 15.2864 18.3031 15.8243C18.3031 16.3621 18.7394 16.7982 19.2775 16.7982Z" fill="#344B5C"/>
<path d="M31.5447 6.97963H23.5583V0.966797C23.5583 0.432867 23.1254 0 22.5915 0H10.4124C9.8785 0 9.44564 0.432867 9.44564 0.966797V6.97963H1.45538C0.921454 6.97963 0.488586 7.4125 0.488586 7.94643V32.0332C0.488586 32.5671 0.921454 33 1.45538 33H10.4119H10.4121C10.4121 33 10.4123 33 10.4124 33H22.5881H22.5915H31.5447C32.0786 33 32.5115 32.5671 32.5115 32.0332V7.94643C32.5115 7.41243 32.0786 6.97963 31.5447 6.97963ZM2.42218 31.0664V8.91322H9.44506V11.0917H4.69035C4.15642 11.0917 3.72355 11.5245 3.72355 12.0585C3.72355 12.5924 4.15642 13.0253 4.69035 13.0253H9.44506V14.9874H4.69035C4.15642 14.9874 3.72355 15.4202 3.72355 15.9541C3.72355 16.4881 4.15642 16.9209 4.69035 16.9209H9.44506V18.883H4.69035C4.15642 18.883 3.72355 19.3159 3.72355 19.8498C3.72355 20.3838 4.15642 20.8166 4.69035 20.8166H9.44506V24.7107C8.92763 24.288 8.2673 24.034 7.54859 24.034C5.89317 24.034 4.54643 25.3804 4.54643 27.0352C4.54643 28.69 5.89324 30.0364 7.54859 30.0364C8.2673 30.0364 8.92769 29.7823 9.44506 29.3597V31.0664H2.42218ZM8.61716 27.0352C8.61716 27.6238 8.13775 28.1028 7.54859 28.1028C6.95942 28.1028 6.48002 27.6238 6.48002 27.0352C6.48002 26.4465 6.95942 25.9676 7.54859 25.9676C8.13775 25.9676 8.61716 26.4465 8.61716 27.0352ZM11.3792 1.93359H21.6247V7.87907C21.6232 7.90137 21.6213 7.92367 21.6213 7.94636V31.0664H11.3792V1.93359ZM30.5779 31.0664H23.5583V29.3663C24.0744 29.7849 24.7315 30.0364 25.4463 30.0364C27.1017 30.0364 28.4485 28.69 28.4485 27.0352C28.4485 25.3804 27.1017 24.034 25.4463 24.034C24.7315 24.034 24.0744 24.2855 23.5583 24.704V20.8166H28.3045C28.8384 20.8166 29.2713 20.3838 29.2713 19.8498C29.2713 19.3159 28.8384 18.883 28.3045 18.883H23.5583V16.9209H28.3045C28.8384 16.9209 29.2713 16.4881 29.2713 15.9541C29.2713 15.4202 28.8384 14.9874 28.3045 14.9874H23.5583V13.0253H28.3045C28.8384 13.0253 29.2713 12.5924 29.2713 12.0585C29.2713 11.5245 28.8384 11.0917 28.3045 11.0917H23.5583V8.91322H30.5779V31.0664ZM24.3778 27.0352C24.3778 26.4465 24.8572 25.9676 25.4463 25.9676C26.0355 25.9676 26.5149 26.4465 26.5149 27.0352C26.5149 27.6238 26.0355 28.1028 25.4463 28.1028C24.8572 28.1028 24.3778 27.6238 24.3778 27.0352Z" fill="#344B5C"/>
<path d="M13.6438 5.23398H19.3601C19.8941 5.23398 20.3269 4.80111 20.3269 4.26718C20.3269 3.73325 19.8941 3.30039 19.3601 3.30039H13.6438C13.1099 3.30039 12.677 3.73325 12.677 4.26718C12.677 4.80111 13.1099 5.23398 13.6438 5.23398Z" fill="#344B5C"/>
<path d="M19.3602 7.196H13.6439C13.1099 7.196 12.6771 7.62887 12.6771 8.1628C12.6771 8.69673 13.1099 9.12959 13.6439 9.12959H19.3602C19.8941 9.12959 20.327 8.69673 20.327 8.1628C20.327 7.62887 19.8941 7.196 19.3602 7.196Z" fill="#344B5C"/>
<path d="M19.3602 11.0917H13.6439C13.1099 11.0917 12.6771 11.5245 12.6771 12.0585C12.6771 12.5924 13.1099 13.0253 13.6439 13.0253H19.3602C19.8941 13.0253 20.327 12.5924 20.327 12.0585C20.327 11.5245 19.8941 11.0917 19.3602 11.0917Z" fill="#344B5C"/>
<path d="M16.502 24.034C14.8466 24.034 13.4999 25.3803 13.4999 27.0352C13.4999 28.69 14.8467 30.0364 16.502 30.0364C18.1574 30.0364 19.5042 28.69 19.5042 27.0352C19.5042 25.3803 18.1574 24.034 16.502 24.034ZM16.502 28.1028C15.9128 28.1028 15.4335 27.6238 15.4335 27.0352C15.4335 26.4465 15.9129 25.9676 16.502 25.9676C17.0912 25.9676 17.5706 26.4465 17.5706 27.0352C17.5706 27.6238 17.0912 28.1028 16.502 28.1028Z" fill="#344B5C"/>
</svg>
