<svg width="34" height="34" viewBox="0 0 34 34" fill="none" xmlns="http://www.w3.org/2000/svg">
<path d="M30.8125 0H3.1875C1.42707 0 0 1.42707 0 3.1875V24.4375C0 25.0243 0.475668 25.5 1.0625 25.5H10.4656L9.71125 30.8125H8.5C7.91317 30.8125 7.4375 31.2882 7.4375 31.875H5.3125V34H28.6875V31.875H26.5625C26.5625 31.2882 26.0868 30.8125 25.5 30.8125H24.2994L23.545 25.5H32.9375C33.5243 25.5 34 25.0243 34 24.4375V3.1875C34 1.42707 32.5729 0 30.8125 0ZM11.8469 30.8125L12.6012 25.5H21.3881L22.1425 30.8125H11.8469ZM31.875 23.375H2.125V20.1875H31.875V23.375ZM6.375 18.0625V6.375H27.625V18.0625H6.375ZM31.875 18.0625H29.75V5.3125C29.75 4.72567 29.2743 4.25 28.6875 4.25H5.3125C4.72567 4.25 4.25 4.72567 4.25 5.3125V18.0625H2.125V3.1875C2.125 2.60067 2.60067 2.125 3.1875 2.125H30.8125C31.3993 2.125 31.875 2.60067 31.875 3.1875V18.0625Z" fill="#344B5C"/>
<path d="M19.8794 10.9331C19.4649 10.5211 18.7957 10.5211 18.3812 10.9331L18.0731 11.2413L16.6919 9.87063C16.2774 9.45864 15.6082 9.45864 15.1937 9.87063L12.0062 13.0581C11.5896 13.4714 11.5868 14.1441 12.0001 14.5607C12.1985 14.7608 12.4682 14.8738 12.75 14.875H21.25C21.8368 14.8784 22.3152 14.4055 22.3187 13.8187C22.3203 13.5332 22.207 13.2591 22.0044 13.0581L19.8794 10.9331Z" fill="#344B5C"/>
</svg>
