<svg width="32" height="32" viewBox="0 0 32 32" fill="none" xmlns="http://www.w3.org/2000/svg">
<path d="M0 32H32V0H0V32ZM1.875 1.875H30.125V30.125H1.875V1.875Z" fill="#344B5C"/>
<path d="M24.4375 7.5H20.6875V3.75H11.3125V7.5H7.5625V11.25H3.75V24.5H28.25V11.25H24.4375V7.5ZM26.375 13.125V22.625H5.625V13.125H9.4375V9.375H13.1875V5.625H18.8125V9.375H22.5625V13.125H26.375Z" fill="#344B5C"/>
<path d="M7.5625 16.875H9.4375V20.75H7.5625V16.875Z" fill="#344B5C"/>
<path d="M11.3125 16.875H13.1875V20.75H11.3125V16.875Z" fill="#344B5C"/>
<path d="M15.0625 16.875H16.9375V20.75H15.0625V16.875Z" fill="#344B5C"/>
<path d="M18.8125 16.875H20.6875V20.75H18.8125V16.875Z" fill="#344B5C"/>
<path d="M22.5625 16.875H24.4375V20.75H22.5625V16.875Z" fill="#344B5C"/>
<path d="M3.75 26.375H5.625V28.25H3.75V26.375Z" fill="#4D6270"/>
<path d="M26.375 26.375H28.25V28.25H26.375V26.375Z" fill="#4D6270"/>
<path d="M26.375 3.75H28.25V5.625H26.375V3.75Z" fill="#4D6270"/>
<path d="M3.75 3.75H5.625V5.625H3.75V3.75Z" fill="#4D6270"/>
</svg>
