<svg width="41" height="33" viewBox="0 0 41 33" fill="none" xmlns="http://www.w3.org/2000/svg">
<path d="M39.7188 24.2656H37.7199L37.7969 4.34375C37.7959 3.28739 37.4581 2.27464 36.8576 1.52768C36.2572 0.780723 35.443 0.360561 34.5938 0.359375H6.40625C5.5575 0.360349 4.74368 0.779923 4.14324 1.52611C3.54279 2.2723 3.20471 3.2842 3.20312 4.33997L3.12609 24.2656H1.28125C1.11135 24.2656 0.9484 24.3496 0.82826 24.499C0.708119 24.6485 0.640625 24.8512 0.640625 25.0625V28.25C0.641579 29.3064 0.979356 30.3191 1.57985 31.0661C2.18035 31.813 2.99452 32.2332 3.84375 32.2344H37.1562C38.0055 32.2332 38.8197 31.813 39.4201 31.0661C40.0206 30.3191 40.3584 29.3064 40.3594 28.25V25.0625C40.3594 24.8512 40.2919 24.6485 40.1717 24.499C40.0516 24.3496 39.8887 24.2656 39.7188 24.2656ZM4.48438 4.34375C4.48495 3.70994 4.68761 3.10228 5.04791 2.65411C5.40821 2.20593 5.89671 1.95384 6.40625 1.95312H34.5938C35.1028 1.95362 35.591 2.20513 35.9512 2.65254C36.3115 3.09994 36.5144 3.70674 36.5156 4.33997L36.4387 24.2656H4.40742L4.48438 4.34375ZM23.498 25.8594L23.1377 27.4531H17.797L17.4767 25.8594H23.498ZM39.0781 28.25C39.0776 28.8838 38.8749 29.4915 38.5146 29.9396C38.1543 30.3878 37.6658 30.6399 37.1562 30.6406H3.84375C3.33421 30.6399 2.84571 30.3878 2.48541 29.9396C2.12511 29.4915 1.92245 28.8838 1.92188 28.25V25.8594H16.1561L16.6754 28.4432C16.71 28.6157 16.79 28.7687 16.9026 28.8781C17.0152 28.9875 17.154 29.0469 17.2969 29.0469H23.623C23.7627 29.0468 23.8985 28.9901 24.0098 28.8852C24.1211 28.7803 24.2018 28.633 24.2396 28.4658L24.829 25.8594H39.0781V28.25Z" fill="#344B5C"/>
<path d="M35.875 22.6719V3.54688C35.875 3.33553 35.8075 3.13284 35.6874 2.9834C35.5672 2.83396 35.4043 2.75 35.2344 2.75H5.76562C5.59572 2.75 5.43278 2.83396 5.31263 2.9834C5.19249 3.13284 5.125 3.33553 5.125 3.54688V22.6719C5.125 22.8832 5.19249 23.0859 5.31263 23.2354C5.43278 23.3848 5.59572 23.4688 5.76562 23.4688H35.2344C35.4043 23.4688 35.5672 23.3848 35.6874 23.2354C35.8075 23.0859 35.875 22.8832 35.875 22.6719ZM34.5938 21.875H6.40625V4.34375H34.5938V21.875Z" fill="#344B5C"/>
<path d="M8.32812 26.6562H3.84375C3.67385 26.6562 3.5109 26.7402 3.39076 26.8896C3.27062 27.0391 3.20312 27.2418 3.20312 27.4531C3.20312 27.6645 3.27062 27.8672 3.39076 28.0166C3.5109 28.166 3.67385 28.25 3.84375 28.25H8.32812C8.49803 28.25 8.66097 28.166 8.78112 28.0166C8.90126 27.8672 8.96875 27.6645 8.96875 27.4531C8.96875 27.2418 8.90126 27.0391 8.78112 26.8896C8.66097 26.7402 8.49803 26.6562 8.32812 26.6562Z" fill="#344B5C"/>
<path d="M10.8906 26.6562H10.25C10.0801 26.6562 9.91715 26.7402 9.79701 26.8896C9.67687 27.0391 9.60938 27.2418 9.60938 27.4531C9.60938 27.6645 9.67687 27.8672 9.79701 28.0166C9.91715 28.166 10.0801 28.25 10.25 28.25H10.8906C11.0605 28.25 11.2235 28.166 11.3436 28.0166C11.4638 27.8672 11.5312 27.6645 11.5312 27.4531C11.5312 27.2418 11.4638 27.0391 11.3436 26.8896C11.2235 26.7402 11.0605 26.6562 10.8906 26.6562Z" fill="#344B5C"/>
</svg>
