<svg width="32" height="32" viewBox="0 0 32 32" fill="none" xmlns="http://www.w3.org/2000/svg">
<path d="M30.125 9.53625V8.4375C30.125 6.88669 28.8633 5.625 27.3125 5.625H26.375C26.375 4.79787 26.1729 4.09706 25.5513 3.47544L22.8996 0.82375C22.3684 0.292563 21.6621 0 20.9109 0H6.5625C6.04475 0 5.625 0.41975 5.625 0.9375V5.625H4.6875C3.13669 5.625 1.875 6.88669 1.875 8.4375V9.53625C0.783813 9.92325 0 10.9653 0 12.1875V21.6875C0 23.2383 1.26169 24.5 2.8125 24.5H5.625V31.0625C5.625 31.5802 6.04475 32 6.5625 32H25.4375C25.9552 32 26.375 31.5802 26.375 31.0625V24.5H29.1875C30.7383 24.5 32 23.2383 32 21.6875V12.1875C32 10.9653 31.2162 9.92325 30.125 9.53625ZM26.375 7.5H27.3125C27.8294 7.5 28.25 7.92056 28.25 8.4375V9.375H26.375V7.5ZM20.75 1.875C20.9273 1.875 21.2687 1.84456 21.5737 2.14956L24.2254 4.80125C24.5251 5.10094 24.5 5.43144 24.5 5.625H20.75V1.875ZM7.5 1.875H18.875V6.5625C18.875 7.08025 19.2948 7.5 19.8125 7.5H24.5V9.375H7.5V1.875ZM3.75 8.4375C3.75 7.92056 4.17056 7.5 4.6875 7.5H5.625V9.375H3.75V8.4375ZM24.5 30.125H7.5V20.75H24.5V30.125ZM30.125 21.6875C30.125 22.2044 29.7044 22.625 29.1875 22.625H26.375V20.75H27.3125C27.8302 20.75 28.25 20.3302 28.25 19.8125C28.25 19.2948 27.8302 18.875 27.3125 18.875H4.6875C4.16975 18.875 3.75 19.2948 3.75 19.8125C3.75 20.3302 4.16975 20.75 4.6875 20.75H5.625V22.625H2.8125C2.29556 22.625 1.875 22.2044 1.875 21.6875V12.1875C1.875 11.6706 2.29556 11.25 2.8125 11.25H29.1875C29.7044 11.25 30.125 11.6706 30.125 12.1875V21.6875Z" fill="#344B5C"/>
<path d="M8.4375 13.125H4.6875C4.16975 13.125 3.75 13.5447 3.75 14.0625C3.75 14.5803 4.16975 15 4.6875 15H8.4375C8.95525 15 9.375 14.5803 9.375 14.0625C9.375 13.5447 8.95525 13.125 8.4375 13.125Z" fill="#344B5C"/>
<path d="M21.6875 22.625H10.3125C9.79475 22.625 9.375 23.0447 9.375 23.5625C9.375 24.0803 9.79475 24.5 10.3125 24.5H21.6875C22.2052 24.5 22.625 24.0803 22.625 23.5625C22.625 23.0447 22.2052 22.625 21.6875 22.625Z" fill="#344B5C"/>
<path d="M21.6875 26.375H10.3125C9.79475 26.375 9.375 26.7947 9.375 27.3125C9.375 27.8303 9.79475 28.25 10.3125 28.25H21.6875C22.2052 28.25 22.625 27.8303 22.625 27.3125C22.625 26.7947 22.2052 26.375 21.6875 26.375Z" fill="#344B5C"/>
</svg>
