<svg width="27" height="27" viewBox="0 0 27 27" fill="none" xmlns="http://www.w3.org/2000/svg">
<path d="M27 2.53125C27 1.13548 25.8645 0 24.4688 0H2.53125C1.13553 0 0 1.13548 0 2.53125V7.59375C0 8.24159 0.244898 8.83306 0.646576 9.28125C0.244898 9.72944 0 10.3209 0 10.9688V16.0312C0 16.6791 0.244898 17.2706 0.646576 17.7188C0.244898 18.1669 0 18.7584 0 19.4062V24.4688C0 25.8645 1.13553 27 2.53125 27H24.4688C25.8645 27 27 25.8645 27 24.4688V19.4062C27 18.7584 26.7551 18.1669 26.3534 17.7188C26.7552 17.2706 27 16.6791 27 16.0312V10.9688C27 10.3209 26.7551 9.72944 26.3534 9.28125C26.7552 8.83306 27 8.24159 27 7.59375V2.53125ZM1.6875 2.53125C1.6875 2.06603 2.06603 1.6875 2.53125 1.6875H24.4688C24.934 1.6875 25.3125 2.06603 25.3125 2.53125V7.59375C25.3125 8.05897 24.934 8.4375 24.4688 8.4375H2.53125C2.06603 8.4375 1.6875 8.05897 1.6875 7.59375V2.53125ZM25.3125 10.9688V16.0312C25.3125 16.4965 24.934 16.875 24.4688 16.875H2.53125C2.06603 16.875 1.6875 16.4965 1.6875 16.0312V10.9688C1.6875 10.5035 2.06603 10.125 2.53125 10.125H24.4688C24.934 10.125 25.3125 10.5035 25.3125 10.9688ZM25.3125 24.4688C25.3125 24.934 24.934 25.3125 24.4688 25.3125H2.53125C2.06603 25.3125 1.6875 24.934 1.6875 24.4688V19.4062C1.6875 18.941 2.06603 18.5625 2.53125 18.5625H24.4688C24.934 18.5625 25.3125 18.941 25.3125 19.4062V24.4688Z" fill="#344B5C"/>
<path d="M22.7812 6.75C23.2472 6.75 23.625 6.37226 23.625 5.90625V4.21875C23.625 3.75274 23.2472 3.375 22.7812 3.375C22.3153 3.375 21.9375 3.75274 21.9375 4.21875V5.90625C21.9375 6.37226 22.3153 6.75 22.7812 6.75Z" fill="#344B5C"/>
<path d="M19.4062 6.75C19.8722 6.75 20.25 6.37226 20.25 5.90625V4.21875C20.25 3.75274 19.8722 3.375 19.4062 3.375C18.9403 3.375 18.5625 3.75274 18.5625 4.21875V5.90625C18.5625 6.37226 18.9403 6.75 19.4062 6.75Z" fill="#344B5C"/>
<path d="M9.28125 5.90625H16.0312C16.4972 5.90625 16.875 5.52851 16.875 5.0625C16.875 4.59649 16.4972 4.21875 16.0312 4.21875H9.28125C8.81529 4.21875 8.4375 4.59649 8.4375 5.0625C8.4375 5.52851 8.81529 5.90625 9.28125 5.90625Z" fill="#344B5C"/>
<path d="M5.0625 15.1875C5.993 15.1875 6.75 14.4305 6.75 13.5C6.75 12.5695 5.993 11.8125 5.0625 11.8125C4.132 11.8125 3.375 12.5695 3.375 13.5C3.375 14.4305 4.132 15.1875 5.0625 15.1875Z" fill="#344B5C"/>
<path d="M5.0625 20.25C4.132 20.25 3.375 21.007 3.375 21.9375C3.375 22.868 4.132 23.625 5.0625 23.625C5.993 23.625 6.75 22.868 6.75 21.9375C6.75 21.007 5.993 20.25 5.0625 20.25Z" fill="#344B5C"/>
<path d="M5.0625 6.75C5.993 6.75 6.75 5.993 6.75 5.0625C6.75 4.132 5.993 3.375 5.0625 3.375C4.132 3.375 3.375 4.132 3.375 5.0625C3.375 5.993 4.132 6.75 5.0625 6.75Z" fill="#344B5C"/>
<path d="M22.7812 15.1875C23.2472 15.1875 23.625 14.8098 23.625 14.3438V12.6562C23.625 12.1902 23.2472 11.8125 22.7812 11.8125C22.3153 11.8125 21.9375 12.1902 21.9375 12.6562V14.3438C21.9375 14.8098 22.3153 15.1875 22.7812 15.1875Z" fill="#344B5C"/>
<path d="M19.4062 15.1875C19.8722 15.1875 20.25 14.8098 20.25 14.3438V12.6562C20.25 12.1902 19.8722 11.8125 19.4062 11.8125C18.9403 11.8125 18.5625 12.1902 18.5625 12.6562V14.3438C18.5625 14.8098 18.9403 15.1875 19.4062 15.1875Z" fill="#344B5C"/>
<path d="M9.28125 14.3438H16.0312C16.4972 14.3438 16.875 13.966 16.875 13.5C16.875 13.034 16.4972 12.6562 16.0312 12.6562H9.28125C8.81529 12.6562 8.4375 13.034 8.4375 13.5C8.4375 13.966 8.81529 14.3438 9.28125 14.3438Z" fill="#344B5C"/>
<path d="M22.7812 20.25C22.3153 20.25 21.9375 20.6277 21.9375 21.0938V22.7812C21.9375 23.2473 22.3153 23.625 22.7812 23.625C23.2472 23.625 23.625 23.2473 23.625 22.7812V21.0938C23.625 20.6277 23.2472 20.25 22.7812 20.25Z" fill="#344B5C"/>
<path d="M19.4062 20.25C18.9403 20.25 18.5625 20.6277 18.5625 21.0938V22.7812C18.5625 23.2473 18.9403 23.625 19.4062 23.625C19.8722 23.625 20.25 23.2473 20.25 22.7812V21.0938C20.25 20.6277 19.8722 20.25 19.4062 20.25Z" fill="#344B5C"/>
<path d="M16.0312 21.0938H9.28125C8.81529 21.0938 8.4375 21.4715 8.4375 21.9375C8.4375 22.4035 8.81529 22.7812 9.28125 22.7812H16.0312C16.4972 22.7812 16.875 22.4035 16.875 21.9375C16.875 21.4715 16.4972 21.0938 16.0312 21.0938Z" fill="#344B5C"/>
</svg>
