<svg width="89" height="89" viewBox="0 0 89 89" fill="none" xmlns="http://www.w3.org/2000/svg">
<circle cx="44.5" cy="44.5" r="43.25" stroke="white" stroke-width="2.5"/>
<path d="M65.5938 27.3438H42.0938V24.4062C42.0938 23.5948 41.4365 22.9375 40.625 22.9375H24.4688C23.6573 22.9375 23 23.5948 23 24.4062V62.5938C23 63.4052 23.6573 64.0625 24.4688 64.0625H40.625C41.4365 64.0625 42.0938 63.4052 42.0938 62.5938V61.125H61.1875C61.9986 61.125 62.6562 60.4674 62.6562 59.6562C62.6562 58.8451 61.9986 58.1875 61.1875 58.1875H56.5166L55.6353 53.7812H65.5938C68.0233 53.7812 70 51.8046 70 49.375V31.75C70 29.3204 68.0233 27.3438 65.5938 27.3438ZM65.5938 30.2812C66.4036 30.2812 67.0625 30.9402 67.0625 31.75V44.9688H42.0938V30.2812H65.5938ZM25.9375 33.2188H39.1562V37.625H25.9375V33.2188ZM39.1562 25.875V30.2812H25.9375V25.875H39.1562ZM39.1562 61.125H25.9375V40.5625H39.1562V61.125ZM42.0938 53.7812H46.1772L45.2959 58.1875H42.0938V53.7812ZM53.5209 58.1875H48.2916L49.1728 53.7812H52.6397L53.5209 58.1875ZM65.5938 50.8438C65.1895 50.8438 42.5006 50.8438 42.0938 50.8438V47.9062H67.0625V49.375C67.0625 50.1848 66.4036 50.8438 65.5938 50.8438Z" fill="white"/>
<path d="M32.5469 52.3125C31.3324 52.3125 30.3438 53.3012 30.3438 54.5156C30.3438 55.7301 31.3324 56.7188 32.5469 56.7188C33.7613 56.7188 34.75 55.7301 34.75 54.5156C34.75 53.3012 33.7613 52.3125 32.5469 52.3125Z" fill="white"/>
<path d="M34.75 43.5H30.3438C29.5326 43.5 28.875 44.1576 28.875 44.9688C28.875 45.7799 29.5326 46.4375 30.3438 46.4375H34.75C35.5611 46.4375 36.2188 45.7799 36.2188 44.9688C36.2188 44.1576 35.5611 43.5 34.75 43.5Z" fill="white"/>
</svg>
