<svg width="89" height="89" viewBox="0 0 89 89" fill="none" xmlns="http://www.w3.org/2000/svg">
<g clip-path="url(#clip0)">
<path d="M71.3953 31.1274L45.5207 17.6276C45.1934 17.4584 44.8066 17.4584 44.4793 17.6276L18.6047 31.1274C18.1455 31.3669 17.9093 31.8898 18.0324 32.393C18.1565 32.8962 18.607 33.2499 19.1255 33.2499H20.2506V61.3744C20.2506 61.9963 20.7537 62.4995 21.3756 62.4995H28.1255C28.7473 62.4995 29.2505 61.9963 29.2505 61.3744V35.4998H60.75V61.3743C60.75 61.9962 61.2531 62.4993 61.875 62.4993H68.6249C69.2467 62.4993 69.7499 61.9962 69.7499 61.3743V33.2499H70.8749C71.3935 33.2499 71.8439 32.8962 71.968 32.393C72.0907 31.8898 71.8545 31.3669 71.3953 31.1274ZM67.4996 32.1249V60.2494H62.9997V34.3749C62.9997 33.7531 62.4965 33.2499 61.8747 33.2499H28.1252C27.5034 33.2499 27.0002 33.7531 27.0002 34.3749V60.2494H22.5004V32.1249C22.5004 31.9667 22.4674 31.8172 22.4091 31.6811L44.9999 19.8941L67.5907 31.6811C67.5325 31.8173 67.4996 31.9667 67.4996 32.1249Z" fill="white"/>
<path d="M57.3748 46.7498H43.875C43.2532 46.7498 42.75 47.2529 42.75 47.8748V48.9998H32.6252C32.0034 48.9998 31.5002 49.503 31.5002 50.1248V61.3746C31.5002 61.9965 32.0034 62.4997 32.6252 62.4997H57.3748C57.9966 62.4997 58.4998 61.9965 58.4998 61.3746V47.8749C58.4997 47.2529 57.9966 46.7498 57.3748 46.7498ZM42.75 60.2495H33.7502V51.2497H37.1252V53.4996C37.1252 54.1215 37.6283 54.6247 38.2502 54.6247C38.872 54.6247 39.3752 54.1215 39.3752 53.4996V51.2497H42.7501V60.2495H42.75ZM56.2498 60.2495H45V50.1247V48.9997H49.4999V52.3746C49.4999 52.9965 50.0031 53.4996 50.6249 53.4996C51.2468 53.4996 51.7499 52.9965 51.7499 52.3746V48.9997H56.2499V60.2495H56.2498Z" fill="white"/>
</g>
<circle cx="44.5" cy="44.5" r="43.25" stroke="white" stroke-width="2.5"/>
<defs>
<clipPath id="clip0">
<rect x="18" y="13" width="54" height="54" fill="white"/>
</clipPath>
</defs>
</svg>
