<svg width="89" height="89" viewBox="0 0 89 89" fill="none" xmlns="http://www.w3.org/2000/svg">
<g clip-path="url(#clip0)">
<path d="M72.0331 56.4514H15.9669C15.4332 56.4514 15 56.0186 15 55.485V51.6184C15 51.0847 15.4332 50.6515 15.9669 50.6515H72.0331C72.5668 50.6515 73 51.0847 73 51.6184V55.485C73 56.0186 72.5668 56.4514 72.0331 56.4514ZM16.9333 54.5181H71.0667V52.5848H16.9333V54.5181Z" fill="white"/>
<path d="M72.0331 66.1184H15.9669C15.4332 66.1184 15 65.6852 15 65.1515V61.2849C15 60.7513 15.4332 60.3185 15.9669 60.3185H72.0331C72.5668 60.3185 73 60.7513 73 61.2849V65.1515C73 65.6852 72.5668 66.1184 72.0331 66.1184ZM16.9333 64.1851H71.0667V62.2518H16.9333V64.1851Z" fill="white"/>
<path d="M25.6334 62.2517H19.8335C19.2998 62.2517 18.8666 61.8185 18.8666 61.2849V55.4849C18.8666 54.9513 19.2998 54.5181 19.8335 54.5181H25.6334C26.1671 54.5181 26.5998 54.9513 26.5998 55.4849V61.2849C26.5998 61.8185 26.1671 62.2517 25.6334 62.2517ZM20.7999 60.3184H24.6665V56.4514H20.7999V60.3184Z" fill="white"/>
<path d="M67.2001 62.2517H61.4002C60.8665 62.2517 60.4333 61.8185 60.4333 61.2849V55.4849C60.4333 54.9513 60.8665 54.5181 61.4002 54.5181H67.2001C67.7337 54.5181 68.1665 54.9513 68.1665 55.4849V61.2849C68.1665 61.8185 67.7337 62.2517 67.2001 62.2517ZM62.3666 60.3184H66.2332V56.4514H62.3666V60.3184Z" fill="white"/>
<path d="M46.9002 62.2517H41.0998C40.5666 62.2517 40.1334 61.8185 40.1334 61.2849V55.4849C40.1334 54.9513 40.5666 54.5181 41.0998 54.5181H46.9002C47.4334 54.5181 47.8666 54.9513 47.8666 55.4849V61.2849C47.8666 61.8185 47.4334 62.2517 46.9002 62.2517ZM42.0667 60.3184H45.9333V56.4514H42.0667V60.3184Z" fill="white"/>
<path d="M44 52.5848H20.7999C20.2663 52.5848 19.8335 52.152 19.8335 51.6183V34.2181C19.8335 33.6845 20.2663 33.2517 20.7999 33.2517H44C44.5337 33.2517 44.9669 33.6845 44.9669 34.2181V51.6183C44.9669 52.152 44.5337 52.5848 44 52.5848ZM21.7668 50.6514H43.0331V35.185H21.7668V50.6514Z" fill="white"/>
<path d="M36.2668 42.9182C36.0606 42.9182 35.8566 42.8523 35.6858 42.7249L32.3988 40.2597L29.1124 42.7249C28.8194 42.9443 28.4278 42.9802 28.1003 42.8169C27.7733 42.6532 27.5658 42.3178 27.5658 41.9514V34.2181C27.5658 33.6845 27.9986 33.2517 28.5322 33.2517H36.2659C36.7991 33.2517 37.2323 33.6845 37.2323 34.2181V41.9514C37.2323 42.3178 37.0257 42.6523 36.6978 42.8169C36.5615 42.8842 36.4146 42.9182 36.2668 42.9182ZM32.4002 38.0847C32.6042 38.0847 32.8077 38.1498 32.9798 38.2781L35.2999 40.0181V35.185H29.5V40.0181L31.82 38.2781C31.9922 38.1498 32.1962 38.0847 32.4002 38.0847Z" fill="white"/>
<path d="M67.2001 52.5848H44C43.4664 52.5848 43.0331 52.152 43.0331 51.6183V34.2181C43.0331 33.6845 43.4664 33.2517 44 33.2517H67.2001C67.7338 33.2517 68.1665 33.6845 68.1665 34.2181V51.6183C68.1665 52.152 67.7338 52.5848 67.2001 52.5848ZM44.9669 50.6514H66.2332V35.185H44.9669V50.6514Z" fill="white"/>
<path d="M59.4669 42.9182C59.2607 42.9182 59.0567 42.8523 58.8859 42.7249L55.5989 40.2597L52.3125 42.7249C52.0195 42.9443 51.6279 42.9802 51.3004 42.8169C50.9734 42.6532 50.7659 42.3178 50.7659 41.9514V34.2181C50.7659 33.6845 51.1987 33.2517 51.7323 33.2517H59.4655C59.9992 33.2517 60.4324 33.6845 60.4324 34.2181V41.9514C60.4324 42.3178 60.2253 42.6523 59.8979 42.8169C59.7616 42.8842 59.6147 42.9182 59.4669 42.9182ZM55.5998 38.0847C55.8038 38.0847 56.0078 38.1498 56.1799 38.2781L58.5 40.0181V35.185H52.7001V40.0181L55.0201 38.2781C55.1923 38.1498 55.3958 38.0847 55.5998 38.0847Z" fill="white"/>
<path d="M55.5998 35.185H32.4002C31.8665 35.185 31.4333 34.7518 31.4333 34.2182V16.8184C31.4333 16.2848 31.8665 15.8516 32.4002 15.8516H55.5998C56.1335 15.8516 56.5667 16.2848 56.5667 16.8184V34.2182C56.5667 34.7518 56.1335 35.185 55.5998 35.185ZM33.3666 33.2517H54.6334V17.7849H33.3666V33.2517Z" fill="white"/>
<path d="M47.8666 25.5181C47.6609 25.5181 47.4569 25.4526 47.2856 25.3247L43.9991 22.86L40.7122 25.3247C40.4193 25.5442 40.0281 25.58 39.7002 25.4167C39.3736 25.2535 39.1656 24.918 39.1656 24.5517V16.8184C39.1656 16.2848 39.5989 15.8516 40.1325 15.8516H47.8657C48.3994 15.8516 48.8322 16.2848 48.8322 16.8184V24.5517C48.8322 24.918 48.6255 25.2526 48.2976 25.4167C48.1613 25.4845 48.0144 25.5181 47.8666 25.5181ZM44 20.685C44.204 20.685 44.408 20.7496 44.5801 20.8784L46.9002 22.6183V17.7849H41.0998V22.6183L43.4199 20.8784C43.592 20.7496 43.796 20.685 44 20.685Z" fill="white"/>
</g>
<circle cx="44.5" cy="44.5" r="43.25" stroke="white" stroke-width="2.5"/>
<defs>
<clipPath id="clip0">
<rect x="15" y="12" width="58" height="58" fill="white"/>
</clipPath>
</defs>
</svg>
