<svg width="115" height="20" viewBox="0 0 115 20" fill="none" xmlns="http://www.w3.org/2000/svg">
<path d="M0.650391 19V0.515625H7.125C9.36784 0.515625 11.069 0.947266 12.2285 1.81055C13.388 2.66536 13.9678 3.9222 13.9678 5.58105C13.9678 6.48665 13.735 7.28646 13.2695 7.98047C12.804 8.66602 12.1566 9.1696 11.3271 9.49121C12.2751 9.72819 13.0199 10.2064 13.5615 10.9258C14.1117 11.6452 14.3867 12.5254 14.3867 13.5664C14.3867 15.3438 13.8197 16.6895 12.6855 17.6035C11.5514 18.5176 9.9349 18.9831 7.83594 19H0.650391ZM4.45898 10.9512V15.9404H7.72168C8.61882 15.9404 9.31706 15.7288 9.81641 15.3057C10.3242 14.874 10.5781 14.2816 10.5781 13.5283C10.5781 11.8356 9.70215 10.9766 7.9502 10.9512H4.45898ZM4.45898 8.25977H7.27734C9.19857 8.22591 10.1592 7.45996 10.1592 5.96191C10.1592 5.12402 9.91374 4.52311 9.42285 4.15918C8.94043 3.78678 8.17448 3.60059 7.125 3.60059H4.45898V8.25977ZM29.5322 19H16.8623V16.4863L22.8418 10.1133C23.6628 9.21615 24.2679 8.43327 24.6572 7.76465C25.055 7.09603 25.2539 6.46126 25.2539 5.86035C25.2539 5.03939 25.0465 4.39616 24.6318 3.93066C24.2171 3.45671 23.6247 3.21973 22.8545 3.21973C22.0251 3.21973 21.3691 3.50749 20.8867 4.08301C20.4128 4.65007 20.1758 5.39909 20.1758 6.33008H16.4941C16.4941 5.20443 16.7607 4.17611 17.2939 3.24512C17.8356 2.31413 18.5973 1.58626 19.5791 1.06152C20.5609 0.52832 21.6738 0.261719 22.918 0.261719C24.8223 0.261719 26.2992 0.71875 27.3486 1.63281C28.4066 2.54688 28.9355 3.83757 28.9355 5.50488C28.9355 6.41895 28.6986 7.34993 28.2246 8.29785C27.7507 9.24577 26.9382 10.3503 25.7871 11.6113L21.585 16.042H29.5322V19ZM32.1855 19V0.515625H38.6602C40.903 0.515625 42.6042 0.947266 43.7637 1.81055C44.9232 2.66536 45.5029 3.9222 45.5029 5.58105C45.5029 6.48665 45.2702 7.28646 44.8047 7.98047C44.3392 8.66602 43.6917 9.1696 42.8623 9.49121C43.8102 9.72819 44.555 10.2064 45.0967 10.9258C45.6468 11.6452 45.9219 12.5254 45.9219 13.5664C45.9219 15.3438 45.3548 16.6895 44.2207 17.6035C43.0866 18.5176 41.4701 18.9831 39.3711 19H32.1855ZM35.9941 10.9512V15.9404H39.2568C40.154 15.9404 40.8522 15.7288 41.3516 15.3057C41.8594 14.874 42.1133 14.2816 42.1133 13.5283C42.1133 11.8356 41.2373 10.9766 39.4854 10.9512H35.9941ZM35.9941 8.25977H38.8125C40.7337 8.22591 41.6943 7.45996 41.6943 5.96191C41.6943 5.12402 41.4489 4.52311 40.958 4.15918C40.4756 3.78678 39.7096 3.60059 38.6602 3.60059H35.9941V8.25977ZM63.3018 12.8428C63.1579 14.8317 62.4215 16.3975 61.0928 17.54C59.7725 18.6826 58.029 19.2539 55.8623 19.2539C53.4925 19.2539 51.6263 18.4583 50.2637 16.8672C48.9095 15.2676 48.2324 13.0755 48.2324 10.291V9.16113C48.2324 7.38379 48.5456 5.81803 49.1719 4.46387C49.7982 3.1097 50.6911 2.07292 51.8506 1.35352C53.0186 0.625651 54.3727 0.261719 55.9131 0.261719C58.0459 0.261719 59.764 0.833008 61.0674 1.97559C62.3708 3.11816 63.124 4.72201 63.3271 6.78711H59.5186C59.4255 5.59375 59.0911 4.73047 58.5156 4.19727C57.9486 3.6556 57.0811 3.38477 55.9131 3.38477C54.6436 3.38477 53.6914 3.8418 53.0566 4.75586C52.4303 5.66146 52.1087 7.07064 52.0918 8.9834V10.3799C52.0918 12.3773 52.3923 13.8372 52.9932 14.7598C53.6025 15.6823 54.5589 16.1436 55.8623 16.1436C57.0387 16.1436 57.9147 15.877 58.4902 15.3438C59.0742 14.8021 59.4085 13.9684 59.4932 12.8428H63.3018ZM80.9863 10.1768C80.9863 11.9964 80.6647 13.5918 80.0215 14.9629C79.3783 16.334 78.4557 17.3919 77.2539 18.1367C76.0605 18.8815 74.6895 19.2539 73.1406 19.2539C71.6087 19.2539 70.2419 18.8857 69.04 18.1494C67.8382 17.4131 66.9072 16.3636 66.2471 15.001C65.5869 13.6299 65.2526 12.0557 65.2441 10.2783V9.36426C65.2441 7.5446 65.57 5.94499 66.2217 4.56543C66.8818 3.17741 67.8086 2.11523 69.002 1.37891C70.2038 0.634115 71.5749 0.261719 73.1152 0.261719C74.6556 0.261719 76.0225 0.634115 77.2158 1.37891C78.4176 2.11523 79.3444 3.17741 79.9961 4.56543C80.6562 5.94499 80.9863 7.54036 80.9863 9.35156V10.1768ZM77.127 9.33887C77.127 7.40072 76.7799 5.92806 76.0859 4.9209C75.3919 3.91374 74.4017 3.41016 73.1152 3.41016C71.8372 3.41016 70.8512 3.90951 70.1572 4.9082C69.4632 5.89844 69.112 7.35417 69.1035 9.27539V10.1768C69.1035 12.0641 69.4505 13.5283 70.1445 14.5693C70.8385 15.6104 71.8372 16.1309 73.1406 16.1309C74.4186 16.1309 75.4004 15.6315 76.0859 14.6328C76.7715 13.6257 77.1185 12.1615 77.127 10.2402V9.33887ZM90.5967 12.2334H87.5625V19H83.7539V0.515625H90.6221C92.8057 0.515625 94.4899 1.00228 95.6748 1.97559C96.8597 2.94889 97.4521 4.32422 97.4521 6.10156C97.4521 7.36263 97.1771 8.41634 96.627 9.2627C96.0853 10.1006 95.2601 10.7692 94.1514 11.2686L98.1504 18.8223V19H94.0625L90.5967 12.2334ZM87.5625 9.14844H90.6348C91.5911 9.14844 92.3317 8.90723 92.8564 8.4248C93.3812 7.93392 93.6436 7.26107 93.6436 6.40625C93.6436 5.53451 93.3939 4.84896 92.8945 4.34961C92.4036 3.85026 91.6462 3.60059 90.6221 3.60059H87.5625V9.14844ZM104.168 12.4873V19H100.359V0.515625H107.57C108.958 0.515625 110.177 0.769531 111.227 1.27734C112.285 1.78516 113.097 2.50879 113.664 3.44824C114.231 4.37923 114.515 5.44141 114.515 6.63477C114.515 8.44596 113.893 9.8763 112.648 10.9258C111.413 11.9668 109.699 12.4873 107.507 12.4873H104.168ZM104.168 9.40234H107.57C108.577 9.40234 109.343 9.16536 109.868 8.69141C110.401 8.21745 110.668 7.54036 110.668 6.66016C110.668 5.75456 110.401 5.02246 109.868 4.46387C109.335 3.90527 108.599 3.61751 107.659 3.60059H104.168V9.40234Z" fill="#344B5C"/>
</svg>
