<svg width="71" height="66" viewBox="0 0 71 66" fill="none" xmlns="http://www.w3.org/2000/svg">
<ellipse cx="35.5" cy="33" rx="35.5" ry="33" fill="#288BF0"/>
<path d="M51.1665 19.7826C51.1684 19.5646 51.0841 19.3547 50.9319 19.1986L45.9754 14.2421C45.82 14.0887 45.6097 14.0039 45.3913 14.0067V14H24.7392C24.2829 14 23.913 14.3699 23.913 14.8261V28.8762L22.9598 28.8845C22.7418 28.8876 22.534 28.9767 22.3815 29.1323L15.064 36.5522C14.912 36.7063 14.8266 36.9139 14.8261 37.1304V47.0352C14.8259 47.2574 14.9153 47.4703 15.0739 47.6259L18.3089 50.7947C18.4634 50.9458 18.6711 51.0303 18.8872 51.0302H18.8955C19.1134 51.0271 19.3212 50.938 19.4738 50.7823L20.1091 50.1339C20.7765 50.5669 21.5554 50.7965 22.351 50.7947H22.3948C22.9159 50.7889 23.4312 50.684 23.9131 50.4858V51.1739C23.9131 51.6301 24.283 52 24.7392 52H50.3479C50.8042 52 51.174 51.6301 51.174 51.1739V19.7826H51.1665ZM46.2174 16.8203L48.3536 18.9565H46.2174V16.8203ZM23.1382 39.6087C22.9189 39.6085 22.7084 39.6956 22.5533 39.8507L20.7996 41.6045C20.1558 42.2475 19.2119 42.4868 18.3395 42.2281L17.8703 43.8126C19.3237 44.2444 20.8968 43.8451 21.9685 42.7726L23.4802 41.2609H23.913V48.5783C23.4822 48.9356 22.942 49.1347 22.3823 49.1425C21.7239 49.1561 21.0884 48.9004 20.6228 48.4346C20.4717 48.273 20.2571 48.1863 20.0363 48.1975C19.8183 48.2006 19.6105 48.2897 19.458 48.4453L18.8797 49.036L16.4783 46.6882V37.4691L23.3149 30.53L23.913 30.5284V33.8261C23.9131 34.0219 23.9828 34.2113 24.1097 34.3605L25.78 36.0622C25.9349 36.2172 26.145 36.3043 26.364 36.3043L31.3478 36.3043V37.1188C31.3429 37.934 30.9456 38.6969 30.2805 39.1683C29.8655 39.4543 29.3736 39.6079 28.8696 39.6086H23.1382V39.6087ZM49.5217 50.3478H25.5652V41.2609H28.8696C31.1475 41.264 32.9968 39.42 33 37.142C33 37.1381 33 37.1342 33 37.1304V36.3043C32.9973 35.393 32.2591 34.6549 31.3478 34.6522H26.7052L25.5652 33.5147V15.6521H44.5651V18.9565C44.5651 19.869 45.3048 20.6087 46.2173 20.6087H49.5217V50.3478H49.5217Z" fill="white"/>
<path d="M28.8696 18.9565H27.2174V20.6087H28.8696V18.9565Z" fill="white"/>
<path d="M32.1738 18.9565H30.5217V20.6087H32.1738V18.9565Z" fill="white"/>
<path d="M46.2174 23.913H27.2174V25.5652H46.2174V23.913Z" fill="white"/>
<path d="M46.2174 28.8696H27.2174V30.5217H46.2174V28.8696Z" fill="white"/>
<path d="M42.087 18.9565H33.8261V20.6087H42.087V18.9565Z" fill="white"/>
<path d="M42.913 33.8261H36.3043V35.4782H42.913V33.8261Z" fill="white"/>
<path d="M46.2174 33.8261H44.5652V35.4782H46.2174V33.8261Z" fill="white"/>
<path d="M42.913 38.7826H36.3043V40.4347H42.913V38.7826Z" fill="white"/>
<path d="M46.2174 38.7826H44.5652V40.4347H46.2174V38.7826Z" fill="white"/>
<path d="M46.2174 42.913H27.2174V44.5651H46.2174V42.913Z" fill="white"/>
</svg>
