<svg width="282" height="50" viewBox="0 0 282 50" fill="none" xmlns="http://www.w3.org/2000/svg">
<rect width="282" height="50" rx="25" fill="#288BF0"/>
<path d="M85.3174 24.7705H83.7969V30H81.1602V17.2031H83.7969V22.3271H85.001L88.1299 17.2031H91.3467L87.4004 23.2588L91.7598 30H88.6133L85.3174 24.7705ZM98.123 30C98.0059 29.7715 97.9209 29.4873 97.8682 29.1475C97.2529 29.833 96.4531 30.1758 95.4688 30.1758C94.5371 30.1758 93.7637 29.9062 93.1484 29.3672C92.5391 28.8281 92.2344 28.1484 92.2344 27.3281C92.2344 26.3203 92.6064 25.5469 93.3506 25.0078C94.1006 24.4688 95.1816 24.1963 96.5938 24.1904H97.7627V23.6455C97.7627 23.2061 97.6484 22.8545 97.4199 22.5908C97.1973 22.3271 96.8428 22.1953 96.3564 22.1953C95.9287 22.1953 95.5918 22.2979 95.3457 22.5029C95.1055 22.708 94.9854 22.9893 94.9854 23.3467H92.4453C92.4453 22.7959 92.6152 22.2861 92.9551 21.8174C93.2949 21.3486 93.7754 20.9824 94.3965 20.7188C95.0176 20.4492 95.7148 20.3145 96.4883 20.3145C97.6602 20.3145 98.5889 20.6104 99.2744 21.2021C99.9658 21.7881 100.312 22.6143 100.312 23.6807V27.8027C100.317 28.7051 100.443 29.3877 100.689 29.8506V30H98.123ZM96.0225 28.2334C96.3975 28.2334 96.7432 28.1514 97.0596 27.9873C97.376 27.8174 97.6104 27.5918 97.7627 27.3105V25.6758H96.8135C95.542 25.6758 94.8652 26.1152 94.7832 26.9941L94.7744 27.1436C94.7744 27.46 94.8857 27.7207 95.1084 27.9258C95.3311 28.1309 95.6357 28.2334 96.0225 28.2334ZM110.015 22.5293H106.965V30H104.416V22.5293H101.419V20.4902H110.015V22.5293ZM116.668 30C116.551 29.7715 116.466 29.4873 116.413 29.1475C115.798 29.833 114.998 30.1758 114.014 30.1758C113.082 30.1758 112.309 29.9062 111.693 29.3672C111.084 28.8281 110.779 28.1484 110.779 27.3281C110.779 26.3203 111.151 25.5469 111.896 25.0078C112.646 24.4688 113.727 24.1963 115.139 24.1904H116.308V23.6455C116.308 23.2061 116.193 22.8545 115.965 22.5908C115.742 22.3271 115.388 22.1953 114.901 22.1953C114.474 22.1953 114.137 22.2979 113.891 22.5029C113.65 22.708 113.53 22.9893 113.53 23.3467H110.99C110.99 22.7959 111.16 22.2861 111.5 21.8174C111.84 21.3486 112.32 20.9824 112.941 20.7188C113.562 20.4492 114.26 20.3145 115.033 20.3145C116.205 20.3145 117.134 20.6104 117.819 21.2021C118.511 21.7881 118.856 22.6143 118.856 23.6807V27.8027C118.862 28.7051 118.988 29.3877 119.234 29.8506V30H116.668ZM114.567 28.2334C114.942 28.2334 115.288 28.1514 115.604 27.9873C115.921 27.8174 116.155 27.5918 116.308 27.3105V25.6758H115.358C114.087 25.6758 113.41 26.1152 113.328 26.9941L113.319 27.1436C113.319 27.46 113.431 27.7207 113.653 27.9258C113.876 28.1309 114.181 28.2334 114.567 28.2334ZM129.078 20.4902V30H126.538V22.5469H124.297L124.139 25.4824C124.039 27.0469 123.731 28.1865 123.216 28.9014C122.7 29.6162 121.933 29.9824 120.913 30H120.052L120.025 27.9346L120.342 27.9082C120.799 27.873 121.133 27.6035 121.344 27.0996C121.555 26.5957 121.687 25.7373 121.739 24.5244L121.915 20.4902H129.078ZM130.643 25.1572C130.643 24.2139 130.824 23.373 131.188 22.6348C131.551 21.8965 132.072 21.3252 132.752 20.9209C133.438 20.5166 134.231 20.3145 135.134 20.3145C136.417 20.3145 137.463 20.707 138.271 21.4922C139.086 22.2773 139.54 23.3438 139.634 24.6914L139.651 25.3418C139.651 26.8008 139.244 27.9727 138.43 28.8574C137.615 29.7363 136.522 30.1758 135.151 30.1758C133.78 30.1758 132.685 29.7363 131.864 28.8574C131.05 27.9785 130.643 26.7832 130.643 25.2715V25.1572ZM133.183 25.3418C133.183 26.2441 133.353 26.9355 133.692 27.416C134.032 27.8906 134.519 28.1279 135.151 28.1279C135.767 28.1279 136.247 27.8936 136.593 27.4248C136.938 26.9502 137.111 26.1943 137.111 25.1572C137.111 24.2725 136.938 23.5869 136.593 23.1006C136.247 22.6143 135.761 22.3711 135.134 22.3711C134.513 22.3711 134.032 22.6143 133.692 23.1006C133.353 23.5811 133.183 24.3281 133.183 25.3418ZM147.693 22.5469H143.756V30H141.216V20.4902H147.693V22.5469ZM161.132 22.5293H158.082V30H155.533V22.5293H152.536V20.4902H161.132V22.5293ZM161.756 25.1572C161.756 24.2139 161.938 23.373 162.301 22.6348C162.664 21.8965 163.186 21.3252 163.865 20.9209C164.551 20.5166 165.345 20.3145 166.247 20.3145C167.53 20.3145 168.576 20.707 169.385 21.4922C170.199 22.2773 170.653 23.3438 170.747 24.6914L170.765 25.3418C170.765 26.8008 170.357 27.9727 169.543 28.8574C168.729 29.7363 167.636 30.1758 166.265 30.1758C164.894 30.1758 163.798 29.7363 162.978 28.8574C162.163 27.9785 161.756 26.7832 161.756 25.2715V25.1572ZM164.296 25.3418C164.296 26.2441 164.466 26.9355 164.806 27.416C165.146 27.8906 165.632 28.1279 166.265 28.1279C166.88 28.1279 167.36 27.8936 167.706 27.4248C168.052 26.9502 168.225 26.1943 168.225 25.1572C168.225 24.2725 168.052 23.5869 167.706 23.1006C167.36 22.6143 166.874 22.3711 166.247 22.3711C165.626 22.3711 165.146 22.6143 164.806 23.1006C164.466 23.5811 164.296 24.3281 164.296 25.3418ZM172.496 30V20.4902H176.469C177.764 20.4902 178.757 20.7188 179.448 21.1758C180.14 21.6328 180.485 22.2891 180.485 23.1445C180.485 23.584 180.339 23.9795 180.046 24.3311C179.759 24.6768 179.337 24.9434 178.78 25.1309C179.46 25.2598 179.993 25.5146 180.38 25.8955C180.772 26.2705 180.969 26.7334 180.969 27.2842C180.969 28.1689 180.635 28.8428 179.967 29.3057C179.305 29.7686 178.341 30 177.075 30H172.496ZM175.036 26.0537V27.9697H177.084C177.98 27.9697 178.429 27.6562 178.429 27.0293C178.429 26.3906 178.001 26.0654 177.146 26.0537H175.036ZM175.036 24.3486H176.609C177.5 24.3369 177.945 24.0498 177.945 23.4873C177.945 23.1416 177.822 22.8955 177.576 22.749C177.336 22.6025 176.967 22.5293 176.469 22.5293H175.036V24.3486ZM188.035 30C187.918 29.7715 187.833 29.4873 187.78 29.1475C187.165 29.833 186.365 30.1758 185.381 30.1758C184.449 30.1758 183.676 29.9062 183.061 29.3672C182.451 28.8281 182.146 28.1484 182.146 27.3281C182.146 26.3203 182.519 25.5469 183.263 25.0078C184.013 24.4688 185.094 24.1963 186.506 24.1904H187.675V23.6455C187.675 23.2061 187.561 22.8545 187.332 22.5908C187.109 22.3271 186.755 22.1953 186.269 22.1953C185.841 22.1953 185.504 22.2979 185.258 22.5029C185.018 22.708 184.897 22.9893 184.897 23.3467H182.357C182.357 22.7959 182.527 22.2861 182.867 21.8174C183.207 21.3486 183.688 20.9824 184.309 20.7188C184.93 20.4492 185.627 20.3145 186.4 20.3145C187.572 20.3145 188.501 20.6104 189.187 21.2021C189.878 21.7881 190.224 22.6143 190.224 23.6807V27.8027C190.229 28.7051 190.355 29.3877 190.602 29.8506V30H188.035ZM185.935 28.2334C186.31 28.2334 186.655 28.1514 186.972 27.9873C187.288 27.8174 187.522 27.5918 187.675 27.3105V25.6758H186.726C185.454 25.6758 184.777 26.1152 184.695 26.9941L184.687 27.1436C184.687 27.46 184.798 27.7207 185.021 27.9258C185.243 28.1309 185.548 28.2334 185.935 28.2334ZM200.735 25.333C200.735 26.7979 200.401 27.9727 199.733 28.8574C199.071 29.7363 198.175 30.1758 197.044 30.1758C196.083 30.1758 195.307 29.8418 194.715 29.1738V33.6562H192.175V20.4902H194.53L194.618 21.4219C195.233 20.6836 196.036 20.3145 197.026 20.3145C198.198 20.3145 199.109 20.748 199.76 21.6152C200.41 22.4824 200.735 23.6777 200.735 25.2012V25.333ZM198.195 25.1484C198.195 24.2637 198.037 23.5811 197.721 23.1006C197.41 22.6201 196.956 22.3799 196.358 22.3799C195.562 22.3799 195.014 22.6846 194.715 23.2939V27.1875C195.025 27.8145 195.579 28.1279 196.376 28.1279C197.589 28.1279 198.195 27.1348 198.195 25.1484ZM201.922 25.1572C201.922 24.2139 202.104 23.373 202.467 22.6348C202.83 21.8965 203.352 21.3252 204.031 20.9209C204.717 20.5166 205.511 20.3145 206.413 20.3145C207.696 20.3145 208.742 20.707 209.551 21.4922C210.365 22.2773 210.819 23.3438 210.913 24.6914L210.931 25.3418C210.931 26.8008 210.523 27.9727 209.709 28.8574C208.895 29.7363 207.802 30.1758 206.431 30.1758C205.06 30.1758 203.964 29.7363 203.144 28.8574C202.329 27.9785 201.922 26.7832 201.922 25.2715V25.1572ZM204.462 25.3418C204.462 26.2441 204.632 26.9355 204.972 27.416C205.312 27.8906 205.798 28.1279 206.431 28.1279C207.046 28.1279 207.526 27.8936 207.872 27.4248C208.218 26.9502 208.391 26.1943 208.391 25.1572C208.391 24.2725 208.218 23.5869 207.872 23.1006C207.526 22.6143 207.04 22.3711 206.413 22.3711C205.792 22.3711 205.312 22.6143 204.972 23.1006C204.632 23.5811 204.462 24.3281 204.462 25.3418ZM212.662 30V20.4902H216.635C217.93 20.4902 218.923 20.7188 219.614 21.1758C220.306 21.6328 220.651 22.2891 220.651 23.1445C220.651 23.584 220.505 23.9795 220.212 24.3311C219.925 24.6768 219.503 24.9434 218.946 25.1309C219.626 25.2598 220.159 25.5146 220.546 25.8955C220.938 26.2705 221.135 26.7334 221.135 27.2842C221.135 28.1689 220.801 28.8428 220.133 29.3057C219.471 29.7686 218.507 30 217.241 30H212.662ZM215.202 26.0537V27.9697H217.25C218.146 27.9697 218.595 27.6562 218.595 27.0293C218.595 26.3906 218.167 26.0654 217.312 26.0537H215.202ZM215.202 24.3486H216.775C217.666 24.3369 218.111 24.0498 218.111 23.4873C218.111 23.1416 217.988 22.8955 217.742 22.749C217.502 22.6025 217.133 22.5293 216.635 22.5293H215.202V24.3486Z" fill="white"/>
<g clip-path="url(#clip0)">
<path d="M52.4339 24.6658C51.1222 24.6658 50.055 25.731 50.055 27.0404C50.055 28.0601 50.7023 28.9315 51.6082 29.2673V32.5307H44.8932V30.6496H46.8166C47.2858 30.6496 47.6662 30.2692 47.6662 29.8V27.885H48.6532C49.1225 27.885 49.5029 27.5046 49.5029 27.0354C49.5029 26.5662 49.1225 26.1858 48.6532 26.1858H47.6662V24.3509H48.6532C49.1225 24.3509 49.5029 23.9705 49.5029 23.5012C49.5029 23.032 49.1225 22.6516 48.6532 22.6516H47.6662V20.8167H48.6532C49.1225 20.8167 49.5029 20.4363 49.5029 19.9671C49.5029 19.4979 49.1225 19.1175 48.6532 19.1175H47.6662V17.2025C47.6662 16.7333 47.2858 16.3529 46.8166 16.3529H44.8932V15.3684V14.4693H51.6082V17.7327C50.7023 18.0685 50.055 18.9399 50.055 19.9596C50.055 21.269 51.1222 22.3342 52.4339 22.3342C53.7456 22.3342 54.8128 21.269 54.8128 19.9596C54.8128 18.958 54.1881 18.1 53.3074 17.7516V13.6197C53.3074 13.1505 52.927 12.7701 52.4578 12.7701H44.0435C43.5743 12.7701 43.1939 13.1505 43.1939 13.6197V15.3685V16.3529H41.3502V13.5918C42.2432 13.2495 42.8789 12.385 42.8789 11.3746C42.8789 10.0652 41.8117 9 40.5 9C39.1883 9 38.1211 10.0652 38.1211 11.3746C38.1211 12.3855 38.7568 13.2503 39.6504 13.5923V16.3529H37.8061V13.6197C37.8061 13.1505 37.4257 12.7701 36.9564 12.7701H28.5422C28.073 12.7701 27.6926 13.1505 27.6926 13.6197V17.7516C26.8119 18.1 26.1872 18.9581 26.1872 19.9596C26.1872 21.269 27.2544 22.3342 28.5661 22.3342C29.8778 22.3342 30.945 21.269 30.945 19.9596C30.945 18.94 30.2977 18.0685 29.3918 17.7327V14.4693H36.1068V15.3449C36.1066 15.3528 36.1056 15.3605 36.1056 15.3685V16.3529H34.1834C33.7142 16.3529 33.3338 16.7333 33.3338 17.2025V19.1175H32.3467C31.8775 19.1175 31.4971 19.4979 31.4971 19.9672C31.4971 20.4364 31.8775 20.8168 32.3467 20.8168H33.3338V22.6517H32.3467C31.8775 22.6517 31.4971 23.0321 31.4971 23.5013C31.4971 23.9705 31.8775 24.3509 32.3467 24.3509H33.3338V26.1858H32.3467C31.8775 26.1858 31.4971 26.5662 31.4971 27.0355C31.4971 27.5047 31.8775 27.8851 32.3467 27.8851H33.3338V29.8001C33.3338 30.2693 33.7142 30.6497 34.1834 30.6497H36.1068V32.5308H29.3918V29.2673C30.2977 28.9316 30.945 28.0601 30.945 27.0404C30.945 25.7311 29.8778 24.6658 28.5661 24.6658C27.2544 24.6659 26.1872 25.7311 26.1872 27.0404C26.1872 28.042 26.8119 28.9001 27.6926 29.2485V33.3804C27.6926 33.8496 28.073 34.23 28.5422 34.23H36.9564C37.4257 34.23 37.8061 33.8496 37.8061 33.3804V30.6497H39.6498V33.4083C38.7568 33.7505 38.1211 34.615 38.1211 35.6254C38.1211 36.9348 39.1883 38 40.5 38C41.8117 38 42.8789 36.9348 42.8789 35.6254C42.8789 34.6145 42.2426 33.7497 41.349 33.4077V30.6496H43.1939V33.3803C43.1939 33.8495 43.5743 34.2299 44.0435 34.2299H52.4578C52.927 34.2299 53.3074 33.8495 53.3074 33.3803V29.2484C54.1881 28.9 54.8128 28.0419 54.8128 27.0403C54.8128 25.731 53.7456 24.6658 52.4339 24.6658ZM52.4339 20.635C52.0591 20.635 51.7542 20.332 51.7542 19.9596C51.7542 19.5872 52.0591 19.2842 52.4339 19.2842C52.8087 19.2842 53.1136 19.5872 53.1136 19.9596C53.1136 20.332 52.8087 20.635 52.4339 20.635ZM28.5661 20.635C28.1913 20.635 27.8864 20.332 27.8864 19.9596C27.8864 19.5872 28.1913 19.2842 28.5661 19.2842C28.9409 19.2842 29.2458 19.5872 29.2458 19.9596C29.2458 20.332 28.9408 20.635 28.5661 20.635ZM28.5661 26.365C28.9409 26.365 29.2458 26.668 29.2458 27.0404C29.2458 27.4128 28.9409 27.7158 28.5661 27.7158C28.1913 27.7158 27.8864 27.4128 27.8864 27.0404C27.8864 26.668 28.1913 26.365 28.5661 26.365ZM40.5 36.3008C40.1252 36.3008 39.8203 35.9978 39.8203 35.6254C39.8203 35.253 40.1252 34.95 40.5 34.95C40.8748 34.95 41.1797 35.253 41.1797 35.6254C41.1797 35.9978 40.8748 36.3008 40.5 36.3008ZM40.5 10.6992C40.8748 10.6992 41.1797 11.0022 41.1797 11.3746C41.1797 11.747 40.8748 12.05 40.5 12.05C40.1252 12.05 39.8203 11.747 39.8203 11.3746C39.8203 11.0022 40.1252 10.6992 40.5 10.6992ZM41.349 28.9504V28.6736C41.349 28.2044 40.9686 27.824 40.4994 27.824C40.0302 27.824 39.6498 28.2044 39.6498 28.6736V28.9504H37.8061V28.6736C37.8061 28.2044 37.4257 27.824 36.9564 27.824C36.4872 27.824 36.1068 28.2044 36.1068 28.6736V28.9504H35.033V27.885H35.3105C35.7797 27.885 36.1601 27.5046 36.1601 27.0354C36.1601 26.5662 35.7797 26.1858 35.3105 26.1858H35.033V24.3509H35.3105C35.7797 24.3509 36.1601 23.9705 36.1601 23.5012C36.1601 23.032 35.7797 22.6516 35.3105 22.6516H35.033V20.8167H35.3105C35.7797 20.8167 36.1601 20.4363 36.1601 19.9671C36.1601 19.4979 35.7797 19.1175 35.3105 19.1175H35.033V18.0521H36.1056V18.3246C36.1056 18.501 36.1595 18.6648 36.2514 18.8005C36.404 19.027 36.6628 19.1759 36.9564 19.1759C37.4257 19.1759 37.8061 18.7955 37.8061 18.3263V18.0521H39.6498V18.3246C39.6498 18.501 39.7036 18.6649 39.7957 18.8007C39.9484 19.027 40.2071 19.1759 40.5006 19.1759C40.9698 19.1759 41.3502 18.7955 41.3502 18.3263V18.052H43.1939V18.3245V18.3263C43.1939 18.7955 43.5743 19.1759 44.0435 19.1759C44.5128 19.1759 44.8932 18.7955 44.8932 18.3263V18.3245V18.052H45.967V19.1174H45.6887C45.2195 19.1174 44.8391 19.4978 44.8391 19.967C44.8391 20.4363 45.2195 20.8167 45.6887 20.8167H45.967V22.6516H45.6887C45.2195 22.6516 44.8391 23.032 44.8391 23.5012C44.8391 23.9704 45.2195 24.3508 45.6887 24.3508H45.967V26.1857H45.6887C45.2195 26.1857 44.8391 26.5661 44.8391 27.0353C44.8391 27.5045 45.2195 27.8849 45.6887 27.8849H45.967V28.9504H44.8932V28.6736C44.8932 28.2043 44.5128 27.8239 44.0435 27.8239C43.5743 27.8239 43.1939 28.2043 43.1939 28.6736V28.9504H41.349V28.9504ZM52.4339 26.365C52.8087 26.365 53.1136 26.668 53.1136 27.0404C53.1136 27.4128 52.8087 27.7158 52.4339 27.7158C52.0591 27.7158 51.7542 27.4128 51.7542 27.0404C51.7542 26.668 52.0592 26.365 52.4339 26.365Z" fill="white"/>
</g>
<defs>
<clipPath id="clip0">
<rect x="26" y="9" width="29" height="29" fill="white"/>
</clipPath>
</defs>
</svg>
