<svg width="38" height="38" viewBox="0 0 38 38" fill="none" xmlns="http://www.w3.org/2000/svg">
<path d="M37.1665 5.78263C37.1684 5.56462 37.0841 5.35467 36.9319 5.19861L31.9754 0.242095C31.82 0.0886752 31.6097 0.00387228 31.3913 0.00666032V0H10.7392C10.2829 0 9.91304 0.36988 9.91304 0.826112V14.8762L8.95976 14.8845C8.74183 14.8876 8.53404 14.9767 8.38147 15.1323L1.06402 22.5522C0.911999 22.7063 0.826576 22.9139 0.826111 23.1304V33.0352C0.825879 33.2574 0.915251 33.4703 1.07394 33.6259L4.30892 36.7947C4.46342 36.9458 4.67105 37.0303 4.8872 37.0302H4.89549C5.11342 37.0271 5.32121 36.938 5.47378 36.7823L6.10906 36.1339C6.77649 36.5669 7.55544 36.7965 8.35104 36.7947H8.39479C8.91593 36.7889 9.43117 36.684 9.91312 36.4858V37.1739C9.91312 37.6301 10.283 38 10.7392 38H36.3479C36.8042 38 37.174 37.6301 37.174 37.1739V5.78263H37.1665ZM32.2174 2.82026L34.3536 4.95652H32.2174V2.82026ZM9.13819 25.6087C8.91887 25.6085 8.70845 25.6956 8.55332 25.8507L6.79957 27.6045C6.15584 28.2475 5.21186 28.4868 4.33951 28.2281L3.87027 29.8126C5.32369 30.2444 6.89684 29.8451 7.96846 28.7726L9.48019 27.2609H9.91304V34.5783C9.48221 34.9356 8.94202 35.1347 8.38232 35.1425C7.72388 35.1561 7.08836 34.9004 6.62276 34.4346C6.47174 34.273 6.25714 34.1863 6.03626 34.1975C5.81833 34.2006 5.61055 34.2897 5.45798 34.4453L4.87969 35.036L2.47826 32.6882V23.4691L9.31493 16.53L9.91304 16.5284V19.8261C9.91311 20.0219 9.98282 20.2113 10.1097 20.3605L11.78 22.0622C11.9349 22.2172 12.145 22.3043 12.364 22.3043L17.3478 22.3043V23.1188C17.3429 23.934 16.9456 24.6969 16.2805 25.1683C15.8655 25.4543 15.3736 25.6079 14.8696 25.6086H9.13819V25.6087ZM35.5217 36.3478H11.5652V27.2609H14.8696C17.1475 27.264 18.9968 25.42 19 23.142C19 23.1381 19 23.1342 19 23.1304V22.3043C18.9973 21.393 18.2591 20.6549 17.3478 20.6522H12.7052L11.5652 19.5147V1.65215H30.5651V4.95652C30.5651 5.86898 31.3048 6.60867 32.2173 6.60867H35.5217V36.3478H35.5217Z" fill="white"/>
<path d="M14.8696 4.95651H13.2174V6.60866H14.8696V4.95651Z" fill="white"/>
<path d="M18.1738 4.95651H16.5217V6.60866H18.1738V4.95651Z" fill="white"/>
<path d="M32.2174 9.91302H13.2174V11.5652H32.2174V9.91302Z" fill="white"/>
<path d="M32.2174 14.8696H13.2174V16.5217H32.2174V14.8696Z" fill="white"/>
<path d="M28.087 4.95651H19.8261V6.60866H28.087V4.95651Z" fill="white"/>
<path d="M28.913 19.8261H22.3043V21.4782H28.913V19.8261Z" fill="white"/>
<path d="M32.2174 19.8261H30.5652V21.4782H32.2174V19.8261Z" fill="white"/>
<path d="M28.913 24.7826H22.3043V26.4347H28.913V24.7826Z" fill="white"/>
<path d="M32.2174 24.7826H30.5652V26.4347H32.2174V24.7826Z" fill="white"/>
<path d="M32.2174 28.913H13.2174V30.5651H32.2174V28.913Z" fill="white"/>
</svg>
