<svg width="23" height="22" viewBox="0 0 23 22" fill="none" xmlns="http://www.w3.org/2000/svg">
<g clip-path="url(#clip0)">
<path d="M15.3599 2.51734C11.8513 -0.838788 6.14063 -0.838788 2.63195 2.51734C-0.875973 5.8742 -0.875973 11.3358 2.63195 14.6927C5.75652 17.6807 10.6229 18.0008 14.1293 15.6676C14.2031 16.0015 14.3719 16.3202 14.6435 16.5799L19.7532 21.4675C20.4978 22.1783 21.7011 22.1783 22.442 21.4675C23.1858 20.756 23.1858 19.605 22.442 18.8957L17.3322 14.0066C17.0622 13.7491 16.7283 13.5868 16.3792 13.5162C18.82 10.1616 18.4853 5.50752 15.3599 2.51734ZM13.7467 13.1496C11.1272 15.6552 6.86397 15.6552 4.24519 13.1496C1.62719 10.6439 1.62719 6.56681 4.24519 4.06117C6.86397 1.55626 11.1272 1.55626 13.7467 4.06117C16.3662 6.56681 16.3662 10.6439 13.7467 13.1496Z" fill="white"/>
</g>
<defs>
<clipPath id="clip0">
<rect width="23" height="22" fill="white"/>
</clipPath>
</defs>
</svg>
