<svg width="54" height="54" viewBox="0 0 54 54" fill="none" xmlns="http://www.w3.org/2000/svg">
<g clip-path="url(#clip0)">
<path d="M4.65581 54H7.17525C7.64184 54 8.019 53.6228 8.019 53.1562V51.451H45.981V53.1562C45.981 53.6228 46.3582 54 46.8248 54H49.356C49.8226 54 50.1998 53.6228 50.1998 53.1562V2.10938C50.1998 0.946687 49.2539 0 48.0904 0C46.9268 0 45.981 0.946687 45.981 2.10938V15.1909H43.4514V3.38175C43.4514 2.916 43.0743 2.538 42.6077 2.538H29.1111C28.6445 2.538 28.2673 2.916 28.2673 3.38175V15.19H25.7344V3.38175C25.7344 2.916 25.3572 2.538 24.8906 2.538H11.394C10.9274 2.538 10.5502 2.916 10.5502 3.38175V15.19H8.019V2.10938C8.019 0.946687 7.07315 0 5.90962 0C4.74609 0 3.80025 0.946687 3.80025 2.10938L3.81206 53.1562C3.81206 53.6228 4.18922 54 4.65581 54ZM47.6685 2.10938C47.6685 1.8765 47.8583 1.6875 48.0904 1.6875C48.3224 1.6875 48.5123 1.8765 48.5123 2.10938V52.3125H47.6685V2.10938ZM35.0139 4.2255H36.7031V5.076H35.0139V4.2255ZM29.9548 4.2255H33.3264V5.91975C33.3264 6.3855 33.7036 6.7635 34.1702 6.7635H37.5469C38.0135 6.7635 38.3906 6.3855 38.3906 5.91975V4.2255H41.7639V15.19H29.9548V4.2255ZM17.2969 4.2255H18.9844V5.076H17.2969V4.2255ZM12.2377 4.2255H15.6094V5.91975C15.6094 6.3855 15.9865 6.7635 16.4531 6.7635H19.8281C20.2947 6.7635 20.6719 6.3855 20.6719 5.91975V4.2255H24.0469V15.19H12.2377V4.2255ZM8.019 16.8775H11.394H24.8906H29.1111H42.6077H45.981V17.7213H8.019V16.8775ZM8.019 19.4088H45.981V31.1968H43.4531V21.924C43.4531 21.4583 43.076 21.0802 42.6094 21.0802H11.3906C10.924 21.0802 10.5469 21.4583 10.5469 21.924V31.1977H8.019V19.4088ZM24.8906 25.299H29.1094C29.576 25.299 29.9531 24.921 29.9531 24.4552V22.7677H41.7656V31.1977H12.2344V22.7677H24.0469V24.4552C24.0469 24.921 24.424 25.299 24.8906 25.299ZM25.7344 23.6115V22.7677H28.2656V23.6115H25.7344ZM8.019 32.8852H11.3906H42.6094H45.981V33.7306H8.019V32.8852ZM8.019 35.4181H45.981V47.2306H43.4548V37.114C43.4548 36.6474 43.0777 36.2703 42.6111 36.2703H30.7969C30.3303 36.2703 29.9531 36.6474 29.9531 37.114V47.2306H27.4269V39.647C27.4269 39.1804 27.0498 38.8032 26.5832 38.8032H20.682C20.6786 38.8032 20.6769 38.8015 20.6736 38.8015C20.6702 38.8015 20.6685 38.8032 20.6651 38.8032H17.3053C17.3019 38.8032 17.3003 38.8015 17.2969 38.8015C17.2935 38.8015 17.2918 38.8032 17.2884 38.8032H11.394C10.9274 38.8032 10.5502 39.1804 10.5502 39.647V47.2306H8.019V35.4181ZM35.0156 40.4949H38.3923C38.8589 40.4949 39.2361 40.1178 39.2361 39.6512V37.9569H41.7673V47.2298H31.6406V37.9569H34.1719V39.6512C34.1719 40.1178 34.549 40.4949 35.0156 40.4949ZM35.8594 38.8074V37.9569H37.5486V38.8074H35.8594ZM17.2969 43.0262H20.6736C21.1402 43.0262 21.5173 42.649 21.5173 42.1824V40.4899H25.7394V47.2298H12.2377V40.4899H16.4531V42.1824C16.4531 42.649 16.8303 43.0262 17.2969 43.0262ZM18.1406 41.3387V40.4899H19.8298V41.3387H18.1406ZM8.019 48.9181H11.394H26.5832H30.7969H42.6111H45.981V49.7635H8.019V48.9181ZM5.90962 1.6875C6.14165 1.6875 6.3315 1.8765 6.3315 2.10938V52.3125H5.49956L5.48775 2.10938C5.48775 1.8765 5.67759 1.6875 5.90962 1.6875Z" fill="#9CB7C8"/>
</g>
<defs>
<clipPath id="clip0">
<rect width="54" height="54" fill="white"/>
</clipPath>
</defs>
</svg>
