<svg width="29" height="29" viewBox="0 0 29 29" fill="none" xmlns="http://www.w3.org/2000/svg">
<g clip-path="url(#clip0)">
<path d="M26.4339 15.6658C25.1222 15.6658 24.055 16.731 24.055 18.0404C24.055 19.0601 24.7023 19.9315 25.6082 20.2673V23.5307H18.8932V21.6496H20.8166C21.2858 21.6496 21.6662 21.2692 21.6662 20.8V18.885H22.6532C23.1225 18.885 23.5029 18.5046 23.5029 18.0354C23.5029 17.5662 23.1225 17.1858 22.6532 17.1858H21.6662V15.3509H22.6532C23.1225 15.3509 23.5029 14.9705 23.5029 14.5012C23.5029 14.032 23.1225 13.6516 22.6532 13.6516H21.6662V11.8167H22.6532C23.1225 11.8167 23.5029 11.4363 23.5029 10.9671C23.5029 10.4979 23.1225 10.1175 22.6532 10.1175H21.6662V8.20247C21.6662 7.73326 21.2858 7.35286 20.8166 7.35286H18.8932V6.36844V5.46927H25.6082V8.73274C24.7023 9.0685 24.055 9.93992 24.055 10.9596C24.055 12.269 25.1222 13.3342 26.4339 13.3342C27.7456 13.3342 28.8128 12.269 28.8128 10.9596C28.8128 9.95805 28.1881 9.1 27.3074 8.7516V4.61967C27.3074 4.15045 26.927 3.77006 26.4578 3.77006H18.0435C17.5743 3.77006 17.1939 4.15045 17.1939 4.61967V6.3685V7.35292H15.3502V4.5918C16.2432 4.24946 16.8789 3.38496 16.8789 2.3746C16.8789 1.06524 15.8117 0 14.5 0C13.1883 0 12.1211 1.06524 12.1211 2.3746C12.1211 3.38547 12.7568 4.25026 13.6504 4.59231V7.35292H11.8061V4.61967C11.8061 4.15045 11.4257 3.77006 10.9564 3.77006H2.5422C2.07299 3.77006 1.69259 4.15045 1.69259 4.61967V8.7516C0.811941 9.1 0.187195 9.9581 0.187195 10.9596C0.187195 12.269 1.25436 13.3342 2.5661 13.3342C3.87784 13.3342 4.94501 12.269 4.94501 10.9596C4.94501 9.93998 4.29772 9.0685 3.39181 8.73274V5.46927H10.1068V6.34494C10.1066 6.35281 10.1056 6.36052 10.1056 6.3685V7.35292H8.18344C7.71422 7.35292 7.33383 7.73331 7.33383 8.20253V10.1175H6.34675C5.87754 10.1175 5.49714 10.4979 5.49714 10.9672C5.49714 11.4364 5.87754 11.8168 6.34675 11.8168H7.33383V13.6517H6.34675C5.87754 13.6517 5.49714 14.0321 5.49714 14.5013C5.49714 14.9705 5.87754 15.3509 6.34675 15.3509H7.33383V17.1858H6.34675C5.87754 17.1858 5.49714 17.5662 5.49714 18.0355C5.49714 18.5047 5.87754 18.8851 6.34675 18.8851H7.33383V20.8001C7.33383 21.2693 7.71422 21.6497 8.18344 21.6497H10.1068V23.5308H3.39181V20.2673C4.29772 19.9316 4.94501 19.0601 4.94501 18.0404C4.94501 16.7311 3.87784 15.6658 2.5661 15.6658C1.25436 15.6659 0.187195 16.7311 0.187195 18.0404C0.187195 19.042 0.811941 19.9001 1.69259 20.2485V24.3804C1.69259 24.8496 2.07299 25.23 2.5422 25.23H10.9564C11.4257 25.23 11.8061 24.8496 11.8061 24.3804V21.6497H13.6498V24.4083C12.7568 24.7505 12.1211 25.615 12.1211 26.6254C12.1211 27.9348 13.1883 29 14.5 29C15.8117 29 16.8789 27.9348 16.8789 26.6254C16.8789 25.6145 16.2426 24.7497 15.349 24.4077V21.6496H17.1939V24.3803C17.1939 24.8495 17.5743 25.2299 18.0435 25.2299H26.4578C26.927 25.2299 27.3074 24.8495 27.3074 24.3803V20.2484C28.1881 19.9 28.8128 19.0419 28.8128 18.0403C28.8128 16.731 27.7456 15.6658 26.4339 15.6658ZM26.4339 11.635C26.0591 11.635 25.7542 11.332 25.7542 10.9596C25.7542 10.5872 26.0591 10.2842 26.4339 10.2842C26.8087 10.2842 27.1136 10.5872 27.1136 10.9596C27.1136 11.332 26.8087 11.635 26.4339 11.635ZM2.5661 11.635C2.19131 11.635 1.88641 11.332 1.88641 10.9596C1.88641 10.5872 2.19131 10.2842 2.5661 10.2842C2.94089 10.2842 3.24579 10.5872 3.24579 10.9596C3.24579 11.332 2.94084 11.635 2.5661 11.635ZM2.5661 17.365C2.94089 17.365 3.24579 17.668 3.24579 18.0404C3.24579 18.4128 2.94089 18.7158 2.5661 18.7158C2.19131 18.7158 1.88641 18.4128 1.88641 18.0404C1.88641 17.668 2.19131 17.365 2.5661 17.365ZM14.5 27.3008C14.1252 27.3008 13.8203 26.9978 13.8203 26.6254C13.8203 26.253 14.1252 25.95 14.5 25.95C14.8748 25.95 15.1797 26.253 15.1797 26.6254C15.1797 26.9978 14.8748 27.3008 14.5 27.3008ZM14.5 1.69922C14.8748 1.69922 15.1797 2.00219 15.1797 2.3746C15.1797 2.74701 14.8748 3.04998 14.5 3.04998C14.1252 3.04998 13.8203 2.74701 13.8203 2.3746C13.8203 2.00219 14.1252 1.69922 14.5 1.69922ZM15.349 19.9504V19.6736C15.349 19.2044 14.9686 18.824 14.4994 18.824C14.0302 18.824 13.6498 19.2044 13.6498 19.6736V19.9504H11.8061V19.6736C11.8061 19.2044 11.4257 18.824 10.9564 18.824C10.4872 18.824 10.1068 19.2044 10.1068 19.6736V19.9504H9.03304V18.885H9.31047C9.77968 18.885 10.1601 18.5046 10.1601 18.0354C10.1601 17.5662 9.77968 17.1858 9.31047 17.1858H9.03304V15.3509H9.31047C9.77968 15.3509 10.1601 14.9705 10.1601 14.5012C10.1601 14.032 9.77968 13.6516 9.31047 13.6516H9.03304V11.8167H9.31047C9.77968 11.8167 10.1601 11.4363 10.1601 10.9671C10.1601 10.4979 9.77968 10.1175 9.31047 10.1175H9.03304V9.05208H10.1056V9.32458C10.1056 9.50095 10.1595 9.66476 10.2514 9.80053C10.404 10.027 10.6628 10.1759 10.9564 10.1759C11.4257 10.1759 11.8061 9.79554 11.8061 9.32633V9.05208H13.6498V9.32458C13.6498 9.50101 13.7036 9.66493 13.7957 9.8007C13.9484 10.027 14.2071 10.1759 14.5006 10.1759C14.9698 10.1759 15.3502 9.79549 15.3502 9.32627V9.05202H17.1939V9.32452V9.32627C17.1939 9.79549 17.5743 10.1759 18.0435 10.1759C18.5128 10.1759 18.8932 9.79549 18.8932 9.32627V9.32452V9.05202H19.967V10.1174H19.6887C19.2195 10.1174 18.8391 10.4978 18.8391 10.967C18.8391 11.4363 19.2195 11.8167 19.6887 11.8167H19.967V13.6516H19.6887C19.2195 13.6516 18.8391 14.032 18.8391 14.5012C18.8391 14.9704 19.2195 15.3508 19.6887 15.3508H19.967V17.1857H19.6887C19.2195 17.1857 18.8391 17.5661 18.8391 18.0353C18.8391 18.5045 19.2195 18.8849 19.6887 18.8849H19.967V19.9504H18.8932V19.6736C18.8932 19.2043 18.5128 18.8239 18.0435 18.8239C17.5743 18.8239 17.1939 19.2043 17.1939 19.6736V19.9504H15.349V19.9504ZM26.4339 17.365C26.8087 17.365 27.1136 17.668 27.1136 18.0404C27.1136 18.4128 26.8087 18.7158 26.4339 18.7158C26.0591 18.7158 25.7542 18.4128 25.7542 18.0404C25.7542 17.668 26.0592 17.365 26.4339 17.365Z" fill="white"/>
</g>
<defs>
<clipPath id="clip0">
<rect width="29" height="29" fill="white"/>
</clipPath>
</defs>
</svg>
