<svg width="20" height="20" viewBox="0 0 20 20" fill="none" xmlns="http://www.w3.org/2000/svg">
<path d="M5.13671 18.4375H2.37081C2.03729 18.4375 1.83608 18.2514 1.74585 18.1404C1.59007 17.9487 1.52972 17.6994 1.58038 17.4561C2.39167 13.5591 5.83073 10.7132 9.80089 10.6209C9.86702 10.6234 9.93331 10.625 9.99999 10.625C10.0673 10.625 10.1341 10.6233 10.2008 10.6208C11.1717 10.643 12.12 10.8255 13.0226 11.1645C13.4265 11.3162 13.8769 11.1116 14.0286 10.7077C14.1803 10.3038 13.9758 9.85336 13.5718 9.70168C13.4425 9.65309 13.3123 9.60762 13.1814 9.56449C14.4744 8.59457 15.3125 7.04957 15.3125 5.3125C15.3125 2.3832 12.9293 0 9.99999 0C7.07065 0 4.68749 2.3832 4.68749 5.3125C4.68749 7.05113 5.52702 8.59734 6.82198 9.56711C5.63561 9.95766 4.52233 10.565 3.54804 11.3664C1.76163 12.8358 0.51956 14.8854 0.0506929 17.1376C-0.0962602 17.8433 0.0797554 18.5682 0.533623 19.1262C0.985185 19.6815 1.65483 20 2.37081 20H5.13671C5.56819 20 5.91796 19.6502 5.91796 19.2188C5.91796 18.7873 5.56819 18.4375 5.13671 18.4375ZM6.24999 5.3125C6.24999 3.24473 7.93222 1.5625 9.99999 1.5625C12.0678 1.5625 13.75 3.24473 13.75 5.3125C13.75 7.31902 12.1658 8.96242 10.1826 9.05801C10.1217 9.05691 10.0609 9.05598 9.99999 9.05598C9.9389 9.05598 9.87784 9.05688 9.81683 9.05797C7.83382 8.96211 6.24999 7.31883 6.24999 5.3125Z" fill="#8FADC1"/>
<path d="M19.4017 13.4612C19.0673 12.7132 18.314 12.2285 17.4808 12.2266H15.0444C15.0426 12.2266 15.041 12.2266 15.0392 12.2266C14.1602 12.2266 13.3935 12.7445 13.0849 13.5471C13.0438 13.6539 12.9936 13.7885 12.9413 13.9453H7.82618C7.61497 13.9453 7.41278 14.0308 7.26563 14.1823L5.9236 15.5647C5.62802 15.8691 5.6295 16.3539 5.92692 16.6565L7.29411 18.0476C7.44099 18.197 7.64177 18.2812 7.8513 18.2812H10.3904C10.8218 18.2812 11.1716 17.9314 11.1716 17.5C11.1716 17.0685 10.8218 16.7187 10.3904 16.7187H8.17888L7.57622 16.1055L8.15657 15.5078H13.5273C13.8872 15.5078 14.2006 15.2619 14.2861 14.9123C14.3494 14.6543 14.4286 14.4061 14.5433 14.1078C14.619 13.9111 14.8089 13.7891 15.041 13.7891C15.0415 13.7891 15.042 13.7891 15.0426 13.7891H17.4789C17.6999 13.7896 17.89 13.9083 17.9752 14.0989C18.1849 14.5681 18.4354 15.2945 18.4372 16.0905C18.4391 16.8925 18.189 17.6355 17.9787 18.1177C17.8939 18.3121 17.7022 18.4375 17.4881 18.4375C17.4876 18.4375 17.4872 18.4375 17.4868 18.4375H15.021C14.8048 18.437 14.6024 18.2979 14.5172 18.0915C14.4258 17.87 14.3467 17.617 14.2751 17.3182C14.1747 16.8986 13.753 16.6398 13.3335 16.7402C12.9139 16.8406 12.6551 17.2622 12.7556 17.6818C12.8462 18.0607 12.95 18.3896 13.0728 18.6872C13.4009 19.4827 14.1642 19.998 15.0192 20H17.485C17.4867 20 17.4882 20 17.4899 20C18.3239 19.9999 19.0777 19.5066 19.411 18.7421C19.681 18.1229 20.0023 17.1597 19.9997 16.0868C19.9972 15.017 19.6731 14.0685 19.4017 13.4612Z" fill="#8FADC1"/>
<path d="M16.8357 16.875C17.2672 16.875 17.6169 16.5252 17.6169 16.0938C17.6169 15.6623 17.2672 15.3125 16.8357 15.3125C16.4042 15.3125 16.0544 15.6623 16.0544 16.0938C16.0544 16.5252 16.4042 16.875 16.8357 16.875Z" fill="#8FADC1"/>
</svg>
